<svg width="20" height="20" viewBox="0 0 20 20" fill="none" xmlns="http://www.w3.org/2000/svg">
<g clip-path="url(#clip0_132_377)">
<path d="M10.0002 3.26079C10.2393 3.26079 10.435 3.06513 10.435 2.826V2.60861C10.435 2.36948 10.2393 2.17383 10.0002 2.17383C9.76108 2.17383 9.56543 2.36948 9.56543 2.60861V2.826C9.56543 3.06513 9.76108 3.26079 10.0002 3.26079Z" fill="white"/>
<path d="M10.0002 16.7391C9.76108 16.7391 9.56543 16.9348 9.56543 17.1739V17.3913C9.56543 17.6304 9.76108 17.8261 10.0002 17.8261C10.2393 17.8261 10.435 17.6304 10.435 17.3913V17.1739C10.435 16.9348 10.2393 16.7391 10.0002 16.7391Z" fill="white"/>
<path d="M2.826 9.56519H2.60861C2.36948 9.56519 2.17383 9.76084 2.17383 9.99997C2.17383 10.2391 2.36948 10.4347 2.60861 10.4347H2.826C3.06513 10.4347 3.26078 10.2391 3.26078 9.99997C3.26078 9.76084 3.06513 9.56519 2.826 9.56519Z" fill="white"/>
<path d="M17.3914 9.56519H17.174C16.9349 9.56519 16.7393 9.76084 16.7393 9.99997C16.7393 10.2391 16.9349 10.4347 17.174 10.4347H17.3914C17.6306 10.4347 17.8262 10.2391 17.8262 9.99997C17.8262 9.76084 17.6306 9.56519 17.3914 9.56519Z" fill="white"/>
<path d="M5.08679 4.47834C4.91287 4.30442 4.652 4.30442 4.47809 4.47834C4.30418 4.65225 4.30418 4.91312 4.47809 5.08703L4.63026 5.23921C4.71722 5.32616 4.82592 5.36964 4.93461 5.36964C5.04331 5.36964 5.152 5.32616 5.23896 5.23921C5.41287 5.06529 5.41287 4.80442 5.23896 4.63051L5.08679 4.47834Z" fill="white"/>
<path d="M4.63026 14.7609L4.47809 14.9131C4.30418 15.087 4.30418 15.3479 4.47809 15.5218C4.56505 15.6088 4.67374 15.6522 4.78244 15.6522C4.89113 15.6522 4.99983 15.6088 5.08679 15.5218L5.23896 15.3696C5.41287 15.1957 5.41287 14.9348 5.23896 14.7609C5.06505 14.587 4.80418 14.587 4.63026 14.7609Z" fill="white"/>
<path d="M14.9135 4.47834L14.7613 4.63051C14.5874 4.80442 14.5874 5.06529 14.7613 5.23921C14.8483 5.32616 14.9569 5.36964 15.0656 5.36964C15.1743 5.36964 15.283 5.32616 15.37 5.23921L15.5222 5.08703C15.6961 4.91312 15.6961 4.65225 15.5222 4.47834C15.3482 4.30442 15.0874 4.30442 14.9135 4.47834Z" fill="white"/>
<path d="M10.435 9.82612V5.8696C10.435 5.63047 10.2393 5.43481 10.0002 5.43481C9.76108 5.43481 9.56543 5.63047 9.56543 5.8696V10C9.56543 10.1087 9.60891 10.2174 9.69586 10.3044L14.4567 15.0653C14.5437 15.1522 14.6524 15.1957 14.7611 15.1957C14.8698 15.1957 14.9785 15.1522 15.0654 15.0653C15.2393 14.8913 15.2393 14.6305 15.0654 14.4566L10.435 9.82612Z" fill="white"/>
<path d="M10 0C4.47826 0 0 4.47826 0 10C0 15.5217 4.47826 20 10 20C15.5217 20 20 15.5217 20 10C20 4.47826 15.5217 0 10 0ZM10 19.1304C4.95652 19.1304 0.869565 15.0435 0.869565 10C0.869565 4.95652 4.95652 0.869565 10 0.869565C15.0435 0.869565 19.1304 4.95652 19.1304 10C19.1304 15.0435 15.0435 19.1304 10 19.1304Z" fill="white"/>
</g>
<defs>
<clipPath id="clip0_132_377">
<rect width="20" height="20" fill="white"/>
</clipPath>
</defs>
</svg>
